<?xml version="1.0" encoding="utf-8"?>
<!-- Generator: Adobe Illustrator 25.3.1, SVG Export Plug-In . SVG Version: 6.00 Build 0)  -->
<svg version="1.1" id="Layer_1" xmlns="http://www.w3.org/2000/svg" xmlns:xlink="http://www.w3.org/1999/xlink" x="0px" y="0px"
	 viewBox="0 0 133.2 107.7" style="enable-background:new 0 0 133.2 107.7;" xml:space="preserve">
<style type="text/css">
	.st0{fill:#024465;}
	.st1{fill:#BCDB94;}
	.st2{fill:#72C598;}
	.st3{fill:#009E97;}
</style>
<path class="st0" d="M73.4,66.9L73.4,66.9c0-0.4-0.1-1.1-0.2-1.7C73.1,64.5,73,64,73,63.9l0,0c-1.3-8.1-2.7-16.3-4-24.5l0,0l0,0
	c-0.1-0.3-0.2-0.6-0.4-0.9c-0.1-0.1-0.3-0.2-0.4-0.3c-0.2-0.1-0.4-0.1-0.6-0.1c-0.3,0-0.6,0.1-0.9,0.3s-0.5,0.4-0.6,0.7l0,0L59.6,62
	l-6.4-22.9l0,0c-0.1-0.3-0.3-0.6-0.5-0.7c-0.2-0.2-0.5-0.3-0.9-0.3c-0.2,0-0.4,0-0.6,0.1c-0.3,0.1-0.4,0.3-0.6,0.5
	c-0.1,0.2-0.2,0.5-0.3,0.7l0,0l0,0c-1.3,8.1-2.8,16.3-4.1,24.5l-0.5,3l0,0V67c0,0.4,0.1,0.7,0.4,1c0.3,0.3,0.6,0.4,1,0.4
	s0.7-0.1,1-0.4c0.3-0.2,0.4-0.5,0.5-0.9l0,0l3.5-21.2l6,21.2l0,0c0.1,0.3,0.2,0.6,0.4,0.8c0.1,0.1,0.2,0.2,0.4,0.3
	c0.2,0.1,0.4,0.1,0.6,0.1s0.4,0,0.6-0.1c0.3-0.1,0.4-0.3,0.6-0.5c0.1-0.2,0.2-0.4,0.3-0.6l0,0l6-21.2l3.5,21.3l0,0
	c0.1,0.3,0.2,0.6,0.5,0.8c0.2,0.2,0.6,0.4,1,0.4s0.7-0.2,1-0.4C73.2,67.7,73.4,67.4,73.4,66.9L73.4,66.9L73.4,66.9"/>
<path class="st0" d="M89.3,54.4c-0.9-1-2-1.8-3.3-2.6c-1.8-1.2-3.4-2.2-4.6-3.3c-0.6-0.5-1.1-1.1-1.4-1.7c-0.3-0.6-0.5-1.3-0.5-2.1
	c0-0.6,0.1-1.1,0.3-1.6c0.1-0.3,0.3-0.6,0.5-0.9c0.3-0.4,0.8-0.7,1.5-1c0.7-0.2,1.5-0.4,2.5-0.4s1.8,0.1,2.5,0.3s1.4,0.5,2.1,0.8
	l0,0l0,0c0.2,0.1,0.4,0.1,0.6,0.1c0.4,0,0.8-0.2,1-0.4c0.2-0.3,0.4-0.6,0.4-0.9c0-0.2-0.1-0.4-0.2-0.7c-0.1-0.2-0.3-0.4-0.5-0.5l0,0
	l0,0c-1.5-1-3.7-1.5-6.2-1.5c-1.2,0-2.3,0.1-3.3,0.4c-1.4,0.4-2.6,1.2-3.3,2.2c-0.8,1-1.2,2.4-1.1,3.9c0,1.2,0.2,2.2,0.6,3.1
	c0.6,1.3,1.6,2.4,2.8,3.3c1.2,0.9,2.5,1.8,3.9,2.7l0,0c1.5,1,2.7,2,3.6,3c0.4,0.5,0.8,1.1,1,1.8c0.2,0.6,0.4,1.4,0.4,2.2
	c0,1-0.2,1.7-0.5,2.4c-0.2,0.5-0.5,0.8-0.9,1.1c-0.5,0.5-1.2,0.8-1.9,1c-0.7,0.2-1.6,0.3-2.4,0.3c-1.2,0-2.2-0.2-3.1-0.4
	c-0.9-0.2-1.8-0.5-2.7-0.9l0,0C76.9,64,76.7,64,76.5,64c-0.4,0-0.8,0.2-1,0.4c-0.2,0.3-0.4,0.6-0.4,1c0,0.3,0.1,0.5,0.2,0.7
	c0.2,0.2,0.4,0.4,0.7,0.5l0,0c1.5,0.7,3.9,1.5,7,1.5c1.1,0,2.2-0.1,3.2-0.4c0.8-0.2,1.5-0.5,2.2-0.8c1-0.6,1.8-1.4,2.4-2.4
	c0.6-1.1,0.9-2.4,0.9-4c0-1.1-0.2-2.1-0.5-3C91,56.5,90.2,55.3,89.3,54.4"/>
<path class="st0" d="M107.8,54.4c-0.9-1-2-1.8-3.3-2.6c-1.8-1.2-3.4-2.2-4.6-3.3c-0.6-0.5-1.1-1.1-1.4-1.7c-0.3-0.6-0.5-1.3-0.5-2.1
	c0-0.6,0.1-1.1,0.3-1.6c0.1-0.3,0.3-0.6,0.5-0.9c0.3-0.4,0.8-0.7,1.5-1c0.7-0.2,1.5-0.4,2.5-0.4s1.8,0.1,2.5,0.3s1.4,0.5,2.1,0.8
	l0,0l0,0c0.2,0.1,0.4,0.1,0.6,0.1c0.4,0,0.8-0.2,1-0.4c0.2-0.3,0.4-0.6,0.4-0.9c0-0.2-0.1-0.4-0.2-0.7c-0.1-0.2-0.3-0.4-0.5-0.5l0,0
	l0,0c-1.5-1-3.7-1.5-6.2-1.5c-1.2,0-2.3,0.1-3.3,0.4c-1.4,0.4-2.6,1.2-3.3,2.2c-0.8,1-1.2,2.4-1.1,3.9c0,1.2,0.2,2.2,0.6,3.1
	c0.6,1.3,1.6,2.4,2.8,3.3c1.2,0.9,2.5,1.8,3.9,2.7l0,0c1.5,1,2.7,2,3.6,3c0.4,0.5,0.8,1.1,1,1.8c0.2,0.6,0.4,1.4,0.4,2.2
	c0,1-0.2,1.7-0.5,2.4c-0.2,0.5-0.5,0.8-0.9,1.1c-0.5,0.5-1.2,0.8-1.9,1c-0.7,0.2-1.6,0.3-2.4,0.3c-1.2,0-2.2-0.2-3.1-0.4
	c-0.9-0.2-1.8-0.5-2.7-0.9l0,0C95.4,64,95.2,64,95,64c-0.4,0-0.8,0.2-1,0.4c-0.2,0.3-0.4,0.6-0.4,1c0,0.3,0.1,0.5,0.2,0.7
	c0.2,0.2,0.4,0.4,0.7,0.5l0,0c1.5,0.7,3.9,1.5,7,1.5c1.1,0,2.2-0.1,3.2-0.4c0.8-0.2,1.5-0.5,2.1-0.8c1-0.6,1.8-1.4,2.4-2.4
	c0.6-1.1,0.9-2.4,0.9-4c0-1.1-0.2-2.1-0.5-3C109.5,56.5,108.8,55.3,107.8,54.4"/>
<path class="st0" d="M130.5,39c-0.1-0.3-0.3-0.5-0.6-0.7s-0.6-0.2-0.9-0.2c-0.2,0-0.4,0-0.6,0.1c-0.3,0.1-0.5,0.3-0.7,0.6
	s-0.2,0.6-0.2,0.9v19.4c0,1.6-0.3,2.8-0.6,3.7c-0.3,0.7-0.7,1.2-1.1,1.5c-0.6,0.6-1.3,0.9-1.9,1.1c-0.7,0.2-1.3,0.2-1.7,0.2
	c-0.4,0-0.9,0-1.5-0.1c-0.4-0.1-0.9-0.2-1.3-0.5c-0.6-0.4-1.3-0.9-1.7-1.8c-0.5-0.9-0.8-2.2-0.8-4V39.6c0-0.4-0.2-0.9-0.5-1.1
	c-0.3-0.3-0.7-0.4-1.1-0.4c-0.2,0-0.4,0-0.6,0.1c-0.3,0.1-0.6,0.3-0.7,0.6c-0.2,0.3-0.3,0.6-0.3,0.9v19.9c0,1.8,0.3,3.2,0.7,4.4
	c0.4,0.9,0.8,1.6,1.4,2.2c0.8,0.9,1.9,1.5,3,1.8s2.3,0.5,3.4,0.5c1,0,2.1-0.1,3.1-0.4c0.7-0.2,1.5-0.5,2.1-0.9
	c1-0.6,1.8-1.5,2.4-2.8c0.6-1.2,0.9-2.8,0.9-4.8v-20C130.6,39.4,130.6,39.2,130.5,39"/>
<path class="st0" d="M133.2,106.2L133.2,106.2c0-0.4-0.1-1.1-0.2-1.7c-0.1-0.6-0.2-1.2-0.2-1.3l0,0c-1.3-8.1-2.7-16.3-4-24.5l0,0
	l0,0c-0.1-0.3-0.2-0.6-0.4-0.9c-0.1-0.1-0.3-0.2-0.4-0.3c-0.2-0.1-0.4-0.1-0.6-0.1c-0.3,0-0.6,0.1-0.9,0.3c-0.2,0.2-0.5,0.4-0.6,0.7
	l0,0l-6.4,22.9L113,78.4l0,0c-0.1-0.3-0.3-0.6-0.5-0.7c-0.2-0.2-0.5-0.3-0.9-0.3c-0.2,0-0.4,0-0.6,0.1c-0.3,0.1-0.4,0.3-0.6,0.5
	c-0.1,0.2-0.2,0.5-0.3,0.7l0,0l0,0c-1.3,8.1-2.8,16.3-4.1,24.5l-0.5,3l0,0v0.1c0,0.4,0.1,0.7,0.4,1s0.6,0.4,1,0.4s0.7-0.1,1-0.4
	c0.3-0.2,0.4-0.5,0.5-0.9l0,0l3.5-21.2l6,21.2l0,0c0.1,0.3,0.2,0.6,0.4,0.8c0.1,0.1,0.2,0.2,0.4,0.3c0.2,0.1,0.4,0.1,0.6,0.1
	s0.4,0,0.6-0.1c0.3-0.1,0.4-0.3,0.6-0.5c0.1-0.2,0.2-0.4,0.3-0.6l0,0l6-21.2l3.5,21.3l0,0c0.1,0.3,0.2,0.6,0.5,0.8
	c0.3,0.2,0.6,0.4,1,0.4s0.7-0.2,1-0.4c0.2-0.2,0.4-0.6,0.4-1C133.2,106.2,133.2,106.2,133.2,106.2L133.2,106.2"/>
<path class="st0" d="M81.7,93.7c-0.9-1-2-1.8-3.3-2.6c-1.8-1.2-3.4-2.2-4.6-3.3c-0.6-0.5-1.1-1.1-1.4-1.7s-0.5-1.3-0.5-2.1
	c0-0.6,0.1-1.1,0.3-1.6c0.1-0.3,0.3-0.6,0.5-0.9c0.3-0.4,0.8-0.7,1.5-1c0.7-0.2,1.5-0.4,2.5-0.4s1.8,0.1,2.5,0.3
	c0.7,0.2,1.4,0.5,2.1,0.8l0,0l0,0c0.2,0.1,0.4,0.1,0.6,0.1c0.4,0,0.8-0.2,1-0.4c0.2-0.3,0.4-0.6,0.4-0.9c0-0.2-0.1-0.4-0.2-0.7
	c-0.1-0.2-0.3-0.4-0.5-0.5l0,0l0,0c-1.5-1-3.7-1.5-6.2-1.5c-1.2,0-2.3,0.1-3.3,0.4c-1.4,0.4-2.6,1.2-3.3,2.2c-0.8,1-1.1,2.4-1.1,3.9
	c0,1.2,0.2,2.2,0.6,3.1c0.6,1.3,1.6,2.4,2.8,3.3c1.2,0.9,2.5,1.8,3.9,2.7l0,0c1.5,1,2.7,2,3.6,3c0.4,0.5,0.8,1.1,1,1.8
	c0.2,0.6,0.4,1.4,0.4,2.2c0,1-0.2,1.7-0.5,2.4c-0.2,0.5-0.5,0.8-0.9,1.1c-0.5,0.5-1.2,0.8-1.9,1c-0.7,0.2-1.6,0.3-2.4,0.3
	c-1.2,0-2.2-0.2-3.1-0.4c-0.9-0.2-1.8-0.5-2.7-0.9l0,0c-0.2-0.1-0.4-0.1-0.6-0.1c-0.4,0-0.8,0.2-1,0.4c-0.2,0.3-0.4,0.6-0.4,1
	c0,0.3,0.1,0.5,0.2,0.7c0.2,0.2,0.4,0.4,0.7,0.5l0,0c1.5,0.7,3.9,1.5,7,1.5c1.1,0,2.2-0.1,3.2-0.4c0.8-0.2,1.5-0.5,2.2-0.8
	c1-0.6,1.8-1.4,2.4-2.4c0.6-1.1,0.9-2.4,0.9-4c0-1.1-0.2-2.1-0.5-3C83.4,95.7,82.6,94.6,81.7,93.7"/>
<path class="st0" d="M100.3,93.7c-0.9-1-2-1.8-3.3-2.6c-1.8-1.2-3.4-2.2-4.6-3.3c-0.6-0.5-1.1-1.1-1.4-1.7s-0.5-1.3-0.5-2.1
	c0-0.6,0.1-1.1,0.3-1.6c0.1-0.3,0.3-0.6,0.5-0.9c0.3-0.4,0.8-0.7,1.5-1c0.7-0.2,1.5-0.4,2.5-0.4s1.8,0.1,2.5,0.3
	c0.7,0.2,1.4,0.5,2.1,0.8l0,0l0,0c0.2,0.1,0.4,0.1,0.6,0.1c0.4,0,0.8-0.2,1-0.4c0.2-0.3,0.4-0.6,0.4-0.9c0-0.2-0.1-0.4-0.2-0.7
	c-0.1-0.2-0.3-0.4-0.5-0.5l0,0l0,0c-1.5-1-3.7-1.5-6.2-1.5c-1.2,0-2.3,0.1-3.3,0.4c-1.4,0.4-2.6,1.2-3.3,2.2c-0.8,1-1.1,2.4-1.1,3.9
	c0,1.2,0.2,2.2,0.6,3.1c0.6,1.3,1.6,2.4,2.8,3.3c1.2,0.9,2.5,1.8,3.9,2.7l0,0c1.5,1,2.7,2,3.6,3c0.4,0.5,0.8,1.1,1,1.8
	c0.2,0.6,0.4,1.4,0.4,2.2c0,1-0.2,1.7-0.5,2.4c-0.2,0.5-0.5,0.8-0.9,1.1c-0.5,0.5-1.2,0.8-1.9,1c-0.7,0.2-1.6,0.3-2.4,0.3
	c-1.2,0-2.2-0.2-3.1-0.4c-0.9-0.2-1.8-0.5-2.7-0.9l0,0c-0.2-0.1-0.4-0.1-0.6-0.1c-0.4,0-0.8,0.2-1,0.4c-0.2,0.3-0.4,0.6-0.4,1
	c0,0.3,0.1,0.5,0.2,0.7c0.2,0.2,0.4,0.4,0.7,0.5l0,0c1.5,0.7,3.9,1.5,7,1.5c1.1,0,2.2-0.1,3.2-0.4c0.8-0.2,1.5-0.5,2.2-0.8
	c1-0.6,1.8-1.4,2.4-2.4c0.6-1.1,0.9-2.4,0.9-4c0-1.1-0.2-2.1-0.5-3C101.9,95.7,101.2,94.6,100.3,93.7"/>
<path class="st0" d="M64.3,78.3c-0.1-0.3-0.3-0.5-0.6-0.7c-0.3-0.2-0.6-0.2-0.9-0.2c-0.2,0-0.4,0-0.6,0.1c-0.3,0.1-0.5,0.3-0.7,0.6
	c-0.2,0.3-0.2,0.6-0.2,0.9v19.4c0,1.6-0.3,2.8-0.6,3.7c-0.3,0.7-0.7,1.2-1.1,1.5c-0.6,0.6-1.3,0.9-1.9,1.1c-0.7,0.2-1.3,0.2-1.7,0.2
	s-0.9,0-1.5-0.1c-0.4-0.1-0.9-0.2-1.3-0.5c-0.6-0.4-1.3-0.9-1.7-1.8c-0.5-0.9-0.8-2.2-0.8-4V78.9c0-0.5-0.2-0.9-0.5-1.1
	c-0.3-0.3-0.7-0.4-1.1-0.4c-0.2,0-0.4,0-0.6,0.1c-0.3,0.1-0.6,0.3-0.7,0.6c-0.2,0.3-0.3,0.6-0.3,0.9v19.9c0,1.8,0.3,3.2,0.7,4.4
	c0.4,0.9,0.8,1.6,1.4,2.2c0.8,0.9,1.9,1.5,3,1.8s2.3,0.5,3.4,0.5c1,0,2.1-0.1,3.1-0.4c0.7-0.2,1.5-0.5,2.1-0.9
	c1-0.6,1.8-1.5,2.4-2.8c0.6-1.2,0.9-2.8,0.9-4.8v-20C64.4,78.7,64.4,78.5,64.3,78.3"/>
<path class="st1" d="M4.5,35.8c-0.6,0-1.1-0.5-1.1-1.1v-7.8c0-0.6,0.5-1.1,1.1-1.1s1.1,0.5,1.1,1.1v7.8C5.6,35.3,5.1,35.8,4.5,35.8"
	/>
<path class="st1" d="M5.6,23.5c0,0.6-0.5,1.1-1.1,1.1s-1.1-0.5-1.1-1.1s0.5-1.1,1.1-1.1S5.6,22.9,5.6,23.5"/>
<path class="st1" d="M7.8,7.8c-0.6,0-1.1-0.5-1.1-1.1V4.5c0-0.6,0.5-1.1,1.1-1.1C8.5,3.4,9,3.9,9,4.5v2.2C9,7.3,8.5,7.8,7.8,7.8"/>
<path class="st1" d="M7.8,35.8c-0.6,0-1.1-0.5-1.1-1.1V10.1C6.7,9.5,7.2,9,7.8,9C8.5,9,9,9.5,9,10.1v24.6C9,35.3,8.5,35.8,7.8,35.8"
	/>
<path class="st1" d="M9,38.1c0,0.6-0.5,1.1-1.1,1.1s-1.1-0.5-1.1-1.1S7.3,37,7.9,37S9,37.4,9,38.1"/>
<path class="st1" d="M11.2,14.6c-0.6,0-1.1-0.5-1.1-1.1v-2.2c0-0.6,0.5-1.1,1.1-1.1s1.1,0.5,1.1,1.1v2.2
	C12.3,14.1,11.8,14.6,11.2,14.6"/>
<path class="st1" d="M12.3,1.1c0,0.6-0.5,1.1-1.1,1.1s-1.1-0.5-1.1-1.1S10.6,0,11.2,0S12.3,0.5,12.3,1.1"/>
<path class="st1" d="M11.2,20.1c-0.6,0-1.1-0.5-1.1-1.1v-2.2c0-0.6,0.5-1.1,1.1-1.1s1.1,0.5,1.1,1.1V19
	C12.3,19.6,11.8,20.1,11.2,20.1"/>
<path class="st1" d="M12.3,41.4c0,0.6-0.5,1.1-1.1,1.1s-1.1-0.5-1.1-1.1s0.5-1.1,1.1-1.1S12.3,40.8,12.3,41.4"/>
<path class="st1" d="M12.3,24.6c0,0.6-0.5,1.1-1.1,1.1s-1.1-0.5-1.1-1.1s0.5-1.1,1.1-1.1S12.3,24,12.3,24.6"/>
<path class="st1" d="M11.2,45.9c-0.6,0-1.1-0.5-1.1-1.1V28c0-0.6,0.5-1.1,1.1-1.1s1.1,0.5,1.1,1.1v16.8
	C12.3,45.4,11.8,45.9,11.2,45.9"/>
<path class="st2" d="M14.6,17.9c-0.6,0-1.1-0.5-1.1-1.1v-6.7C13.5,9.5,14,9,14.6,9s1.1,0.5,1.1,1.1v6.7
	C15.7,17.4,15.2,17.9,14.6,17.9"/>
<path class="st2" d="M17.9,16.8c-0.6,0-1.1-0.5-1.1-1.1V9c0-0.6,0.5-1.1,1.1-1.1C18.5,7.8,19,8.3,19,9v6.7
	C19,16.3,18.5,16.8,17.9,16.8"/>
<path class="st2" d="M14.6,71.6c-0.6,0-1.1-0.5-1.1-1.1V29.1c0-0.6,0.5-1.1,1.1-1.1s1.1,0.5,1.1,1.1v41.4
	C15.7,71.1,15.2,71.6,14.6,71.6"/>
<path class="st2" d="M15.7,73.9c0,0.6-0.5,1.1-1.1,1.1s-1.1-0.5-1.1-1.1s0.5-1.1,1.1-1.1S15.7,73.3,15.7,73.9"/>
<path class="st1" d="M12.3,75c0,0.6-0.5,1.1-1.1,1.1s-1.1-0.5-1.1-1.1s0.5-1.1,1.1-1.1S12.3,74.4,12.3,75"/>
<path class="st1" d="M11.2,72.8c-0.6,0-1.1-0.5-1.1-1.1V65c0-0.6,0.5-1.1,1.1-1.1s1.1,0.5,1.1,1.1v6.7
	C12.3,72.3,11.8,72.8,11.2,72.8"/>
<path class="st1" d="M7.8,75c-0.6,0-1.1-0.5-1.1-1.1v-5.6c0-0.6,0.5-1.1,1.1-1.1s1.1,0.5,1.1,1.1v5.6C9,74.5,8.5,75,7.8,75"/>
<path class="st1" d="M4.5,75c-0.6,0-1.1-0.5-1.1-1.1v-4.5c0-0.6,0.5-1.1,1.1-1.1s1.1,0.5,1.1,1.1v4.5C5.6,74.5,5.1,75,4.5,75"/>
<path class="st1" d="M2.2,70.5c0,0.6-0.5,1.1-1.1,1.1S0,71.1,0,70.5s0.5-1.1,1.1-1.1S2.2,69.9,2.2,70.5"/>
<path class="st2" d="M17.9,73.9c-0.6,0-1.1-0.5-1.1-1.1V28c0-0.6,0.5-1.1,1.1-1.1S19,27.4,19,28v44.8C19,73.4,18.5,73.9,17.9,73.9"
	/>
<path class="st2" d="M21.3,71.6c-0.6,0-1.1-0.5-1.1-1.1V33.6c0-0.6,0.5-1.1,1.1-1.1s1.1,0.5,1.1,1.1v36.9
	C22.4,71.1,21.9,71.6,21.3,71.6"/>
<path class="st2" d="M24.6,67.2c-0.6,0-1.1-0.5-1.1-1.1V41.4c0-0.6,0.5-1.1,1.1-1.1s1.1,0.5,1.1,1.1V66
	C25.7,66.7,25.2,67.2,24.6,67.2"/>
<path class="st3" d="M28,58.2c-0.6,0-1.1-0.5-1.1-1.1V42.5c0-0.6,0.5-1.1,1.1-1.1s1.1,0.5,1.1,1.1v14.6C29.1,57.7,28.6,58.2,28,58.2
	"/>
<path class="st3" d="M29.1,60.4c0,0.6-0.5,1.1-1.1,1.1s-1.1-0.5-1.1-1.1s0.5-1.1,1.1-1.1S29.1,59.8,29.1,60.4"/>
<path class="st2" d="M24.6,36.9c-0.6,0-1.1-0.5-1.1-1.1v-1.1c0-0.6,0.5-1.1,1.1-1.1s1.1,0.5,1.1,1.1v1.1
	C25.7,36.4,25.2,36.9,24.6,36.9"/>
<path class="st3" d="M31.3,52.6c-0.6,0-1.1-0.5-1.1-1.1v-7.8c0-0.6,0.5-1.1,1.1-1.1s1.1,0.5,1.1,1.1v7.8
	C32.5,52.1,32,52.6,31.3,52.6"/>
<path class="st2" d="M25.7,29.1c0,0.6-0.5,1.1-1.1,1.1s-1.1-0.5-1.1-1.1S24,28,24.6,28S25.7,28.5,25.7,29.1"/>
<path class="st3" d="M29.1,30.2c0,0.6-0.5,1.1-1.1,1.1s-1.1-0.5-1.1-1.1s0.5-1.1,1.1-1.1S29.1,29.6,29.1,30.2"/>
<path class="st2" d="M21.3,30.2c-0.6,0-1.1-0.5-1.1-1.1v-7.8c0-0.6,0.5-1.1,1.1-1.1s1.1,0.5,1.1,1.1v7.8
	C22.4,29.7,21.9,30.2,21.3,30.2"/>
<path class="st2" d="M24.6,25.7c-0.6,0-1.1-0.5-1.1-1.1v-3.4c0-0.6,0.5-1.1,1.1-1.1s1.1,0.5,1.1,1.1v3.4
	C25.7,25.2,25.2,25.7,24.6,25.7"/>
<path class="st2" d="M21.3,13.4c-0.6,0-1.1-0.5-1.1-1.1v-1.1c0-0.6,0.5-1.1,1.1-1.1s1.1,0.5,1.1,1.1v1.1
	C22.4,12.9,21.9,13.4,21.3,13.4"/>
<path class="st3" d="M31.3,13.4c-0.6,0-1.1-0.5-1.1-1.1V7.8c0-0.6,0.5-1.1,1.1-1.1s1.1,0.5,1.1,1.1v4.5C32.5,12.9,32,13.4,31.3,13.4
	"/>
<path class="st3" d="M29.1,12.3c0,0.6-0.5,1.1-1.1,1.1s-1.1-0.5-1.1-1.1s0.5-1.1,1.1-1.1S29.1,11.7,29.1,12.3"/>
<path class="st3" d="M34.7,12.3c-0.6,0-1.1-0.5-1.1-1.1v-1.1c0-0.6,0.5-1.1,1.1-1.1s1.1,0.5,1.1,1.1v1.1
	C35.8,11.8,35.3,12.3,34.7,12.3"/>
<path class="st3" d="M39.2,11.2c0,0.6-0.5,1.1-1.1,1.1S37,11.8,37,11.2s0.5-1.1,1.1-1.1C38.7,10.1,39.2,10.6,39.2,11.2"/>
<path class="st3" d="M29.1,23.5c0,0.6-0.5,1.1-1.1,1.1s-1.1-0.5-1.1-1.1s0.5-1.1,1.1-1.1S29.1,22.9,29.1,23.5"/>
<path class="st3" d="M34.7,48.1c-0.6,0-1.1-0.5-1.1-1.1v-5.6c0-0.6,0.5-1.1,1.1-1.1s1.1,0.5,1.1,1.1V47
	C35.8,47.6,35.3,48.1,34.7,48.1"/>
<path class="st3" d="M39.2,39.2c0,0.6-0.5,1.1-1.1,1.1S37,39.8,37,39.2s0.5-1.1,1.1-1.1C38.7,38.1,39.2,38.6,39.2,39.2"/>
</svg>
