<?xml version="1.0" encoding="utf-8"?>
<!-- Generator: Adobe Illustrator 25.3.1, SVG Export Plug-In . SVG Version: 6.00 Build 0)  -->
<svg version="1.1" id="Layer_1" xmlns="http://www.w3.org/2000/svg" xmlns:xlink="http://www.w3.org/1999/xlink" x="0px" y="0px"
	 viewBox="0 0 144 180" style="enable-background:new 0 0 144 180;" xml:space="preserve">
<style type="text/css">
	.st0{opacity:0.25;fill:#FFFFFF;}
</style>
<path class="st0" d="M72,54c-9.9,0-18,8.1-18,18v18c0,9.9,8.1,18,18,18c9.9,0,18-8.1,18-18V72C90,62.1,82,54,72,54"/>
<path class="st0" d="M90,18C90,8.1,82,0,72,0c-9.9,0-18,8.1-18,18c0,9.9,8.1,18,18,18C82,36,90,27.9,90,18"/>
<path class="st0" d="M18,72C8.1,72,0,82.7,0,96v24c0,13.3,8.1,24,18,24c9.9,0,18-10.7,18-24V96C36,82.7,27.9,72,18,72"/>
<path class="st0" d="M108,180V54c0-9.9,8.1-18,18-18s18,8.1,18,18v126H108z"/>
<path class="st0" d="M54,180v-36c0-9.9,8.1-18,18-18s18,8.1,18,18v36H54z"/>
<path class="st0" d="M0,180c0-9.9,8.1-18,18-18s18,8.1,18,18H0z"/>
</svg>
